<?xml version="1.0" encoding="UTF-8"?>
<svg version="1.1" xmlns="http://www.w3.org/2000/svg" width="30" height="32">
<path d="M0 0 C3.20432795 2.89341296 6.06170212 6.12340424 8 10 C8.05894503 15.89450347 7.10638118 20.57774335 3 25 C-0.89629274 27.43626286 -4.56858007 28.41058964 -9.125 27.625 C-13.77725637 26.12930417 -16.55817633 23.15110023 -19 19 C-20.28285405 14.77412785 -20.17892955 12.61046553 -18.9375 8.375 C-16.42668981 4.00133064 -13.75747785 1.24531258 -9.0625 -0.875 C-5.64422839 -1.08216798 -3.34633101 -0.96419707 0 0 Z M3 11 C4 13 4 13 4 13 Z M-5 16 C-6.485 19.96 -6.485 19.96 -8 24 C-6.02 23.67 -4.04 23.34 -2 23 C-2.66 22.67 -3.32 22.34 -4 22 C-4 20.02 -4 18.04 -4 16 C-4.33 16 -4.66 16 -5 16 Z " fill="#316B2E" transform="translate(21,3)"/>
<path d="M0 0 C2.875 -0.125 2.875 -0.125 6 0 C8 2 8 2 8.125 4.625 C8.08375 5.40875 8.0425 6.1925 8 7 C7.01 7 6.02 7 5 7 C3.65022151 7.63270867 2.31647119 8.30062468 1 9 C0.01 9.33 -0.98 9.66 -2 10 C-1.34 6.7 -0.68 3.4 0 0 Z " fill="#3B7535" transform="translate(12,11)"/>
</svg>
